<?xml version="1.0" encoding="utf-8"?>
<!-- Generator: Adobe Illustrator 25.2.3, SVG Export Plug-In . SVG Version: 6.00 Build 0)  -->
<svg version="1.1" id="Capa_1" xmlns="http://www.w3.org/2000/svg" xmlns:xlink="http://www.w3.org/1999/xlink" x="0px" y="0px"
	 viewBox="0 0 841.89 841.89" style="enable-background:new 0 0 841.89 841.89;" xml:space="preserve">
<style type="text/css">
	.st0{display:none;fill:url(#SVGID_1_);}
	.st1{display:none;fill:#FFFFFF;}
	.st2{fill:#51BFEB;}
	.st3{fill:#FFFFFF;}
	.st4{font-family:'Broadway';}
	.st5{font-size:106.7235px;}
</style>
<linearGradient id="SVGID_1_" gradientUnits="userSpaceOnUse" x1="71.7958" y1="687.4545" x2="797.2444" y2="245.3154">
	<stop  offset="0" style="stop-color:#1E1E1E"/>
	<stop  offset="1" style="stop-color:#000000"/>
</linearGradient>
<rect x="-3.78" y="-126.14" class="st0" width="849.57" height="1201.53"/>
<path class="st1" d="M34.97,34.64v772.05h772.05V34.64H34.97z M789.54,789.21H52.46V52.12h737.08V789.21z"/>
<path class="st2" d="M516.38,305.15c-1.72-3.25-15.71-13.3-22.63-17.11c-5.9-3.25-13.36-8.68-16.98-10.51
	c-3.96-2.01-17.24-1.58-21.75-0.09c-4.51,1.49-3.8,12.51-3.05,14.99c0.74,2.48,9.36,3.8,14.07,2.56c4.71-1.24,5.7-6.95,5.7-6.95
	s7.19,5.95,10.66,9.67c1.96,2.1,2.97,4.2,3.48,5.64c-2.35-0.86-5.03-1.36-7.88-1.36c-5.46,0-10.29,1.8-13.36,4.58
	c-2.09-0.91-4.4-1.42-6.83-1.42c-6.28,0-11.76,3.39-14.75,8.43h-1.85h-0.77c-0.87,0-1.73,0.08-2.57,0.19
	c-0.53,0.07-1.07,0.14-1.59,0.26c-1.05-0.22-2.13-0.35-3.24-0.4v-7.36c1.82-2.19,2.91-5.01,2.91-8.08v-1.59h0.42
	c2.36,0,4.28-1.92,4.28-4.28v-2.72c0-2.36-1.92-4.28-4.28-4.28h-0.42v-7.43c0-6.99-5.67-12.66-12.66-12.66h-4.61
	c-6.99,0-12.66,5.67-12.66,12.66v7.43h-0.42c-2.36,0-4.28,1.92-4.28,4.28v2.72c0,2.36,1.92,4.28,4.28,4.28h0.42v1.59
	c0,3.07,1.09,5.88,2.91,8.08v7.36c-1.1,0.05-2.19,0.17-3.24,0.4c-0.52-0.11-1.05-0.19-1.59-0.26c-0.84-0.11-1.7-0.19-2.57-0.19
	h-0.77h-1.85c-2.99-5.04-8.47-8.43-14.75-8.43c-2.43,0-4.74,0.51-6.83,1.42c-3.07-2.78-7.9-4.58-13.36-4.58
	c-2.85,0-5.53,0.49-7.88,1.36c0.51-1.43,1.52-3.53,3.48-5.64c3.47-3.72,10.66-9.67,10.66-9.67s0.99,5.71,5.7,6.95
	c4.71,1.24,13.33-0.08,14.07-2.56c0.74-2.48,1.45-13.5-3.05-14.99c-4.51-1.49-17.79-1.91-21.75,0.09
	c-3.62,1.83-11.07,7.26-16.98,10.51c-6.92,3.81-20.91,13.86-22.63,17.11c-1.43,2.71-3.64,5.6-3.62,7.86
	c0.03,3.81,3.3,6.46,4.86,8.01c2.48,2.48,14.13,12.89,27.52,13.64c7.32,0.41,13.8,0.37,18.19,0.25c0.8,0.74,1.68,1.38,2.61,1.96
	c0.26,0.16,0.5,0.34,0.77,0.49v11.68c0,8.95,5.93,16.51,14.07,18.98v14c0,10.96,8.88,19.84,19.43,23.58h23.07
	c10.55-3.74,19.43-12.63,19.43-23.58v-14c8.14-2.47,14.07-10.03,14.07-18.98v-11.68c0.27-0.15,0.51-0.33,0.77-0.49
	c0.93-0.58,1.81-1.22,2.61-1.96c4.39,0.12,10.88,0.16,18.19-0.25c13.39-0.74,25.04-11.16,27.52-13.64c1.56-1.56,4.83-4.2,4.86-8.01
	C520.02,310.75,517.81,307.86,516.38,305.15z"/>
<text transform="matrix(0.5642 0 0 1 158.9248 522.8814)" class="st3 st4 st5">IMPULSO SPORT</text>
</svg>
