<?xml version="1.0" encoding="utf-8"?>
<!-- Generator: Adobe Illustrator 25.2.3, SVG Export Plug-In . SVG Version: 6.00 Build 0)  -->
<svg version="1.1" id="Capa_1" xmlns="http://www.w3.org/2000/svg" xmlns:xlink="http://www.w3.org/1999/xlink" x="0px" y="0px"
	 viewBox="0 0 841.89 426.89" style="enable-background:new 0 0 841.89 426.89;" xml:space="preserve">
<style type="text/css">
	.st0{display:none;fill:url(#SVGID_1_);}
	.st1{display:none;fill:#FFFFFF;}
	.st2{fill:#51BFEB;}
	.st3{fill:#FFFFFF;}
	.st4{font-family:'Broadway';}
	.st5{font-size:172.6577px;}
</style>
<linearGradient id="SVGID_1_" gradientUnits="userSpaceOnUse" x1="71.7958" y1="472.8633" x2="797.2444" y2="30.7242">
	<stop  offset="0" style="stop-color:#1E1E1E"/>
	<stop  offset="1" style="stop-color:#000000"/>
</linearGradient>
<rect x="-3.78" y="-340.73" class="st0" width="849.57" height="1201.53"/>
<path class="st1" d="M34.97-179.95V592.1h772.05v-772.05H34.97z M789.54,574.62H52.46v-737.08h737.08V574.62z"/>
<path class="st2" d="M574.46,71.2c-2.78-5.27-25.41-21.51-36.61-27.68c-9.55-5.26-21.61-14.04-27.46-17
	c-6.41-3.25-27.9-2.56-35.19-0.15c-7.29,2.41-6.14,20.23-4.94,24.24c1.2,4.01,15.15,6.15,22.77,4.15
	c7.62-2.01,9.23-11.24,9.23-11.24s11.63,9.63,17.25,15.65c3.17,3.4,4.81,6.8,5.63,9.12c-3.8-1.4-8.14-2.2-12.75-2.2
	c-8.83,0-16.65,2.92-21.61,7.42c-3.39-1.47-7.12-2.3-11.05-2.3c-10.17,0-19.03,5.48-23.86,13.64h-2.99h-1.24
	c-1.41,0-2.8,0.12-4.16,0.31c-0.86,0.11-1.73,0.23-2.57,0.41c-1.7-0.36-3.45-0.56-5.24-0.64v-11.9c2.94-3.55,4.71-8.1,4.71-13.07
	v-2.57h0.67c3.83,0,6.93-3.1,6.93-6.93v-4.41c0-3.83-3.1-6.93-6.93-6.93h-0.67V27.09c0-11.31-9.17-20.48-20.48-20.48h-7.46
	c-11.31,0-20.48,9.17-20.48,20.48v12.02h-0.67c-3.83,0-6.93,3.1-6.93,6.93v4.41c0,3.83,3.1,6.93,6.93,6.93h0.67v2.57
	c0,4.97,1.77,9.52,4.71,13.07v11.9c-1.79,0.08-3.54,0.28-5.24,0.64c-0.84-0.18-1.71-0.3-2.57-0.41c-1.36-0.18-2.75-0.31-4.16-0.31
	h-1.24h-2.99c-4.83-8.15-13.7-13.64-23.86-13.64c-3.93,0-7.66,0.83-11.05,2.3c-4.96-4.5-12.79-7.42-21.61-7.42
	c-4.61,0-8.95,0.8-12.75,2.2c0.82-2.31,2.46-5.71,5.63-9.12c5.62-6.02,17.25-15.65,17.25-15.65s1.6,9.23,9.23,11.24
	c7.62,2.01,21.56-0.13,22.77-4.15c1.2-4.01,2.35-21.84-4.94-24.24c-7.29-2.41-28.77-3.09-35.19,0.15
	c-5.85,2.96-17.91,11.74-27.46,17c-11.2,6.17-33.84,22.42-36.61,27.68c-2.31,4.38-5.88,9.05-5.86,12.71
	c0.05,6.16,5.35,10.45,7.86,12.96c4.01,4.01,22.87,20.86,44.53,22.06c11.83,0.66,22.33,0.6,29.43,0.4c1.3,1.19,2.73,2.23,4.23,3.17
	c0.42,0.26,0.81,0.55,1.24,0.79v18.9c0,14.48,9.59,26.71,22.77,30.71v22.65c0,17.72,14.37,32.09,31.44,38.15h37.32
	c17.07-6.06,31.44-20.43,31.44-38.15v-22.65c13.17-4,22.77-16.23,22.77-30.71v-18.9c0.43-0.24,0.82-0.53,1.24-0.79
	c1.5-0.94,2.93-1.98,4.23-3.17c7.11,0.19,17.6,0.25,29.43-0.4c21.66-1.2,40.52-18.05,44.53-22.06c2.52-2.52,7.82-6.8,7.86-12.96
	C580.35,80.25,576.77,75.58,574.46,71.2z"/>
<text transform="matrix(0.5642 0 0 1 -3.8296 423.4381)" class="st3 st4 st5">IMPULSO SPORT</text>
</svg>
